<?xml version="1.0" encoding="utf-8"?>
<!-- Generator: Adobe Illustrator 24.1.2, SVG Export Plug-In . SVG Version: 6.00 Build 0)  -->
<svg version="1.1" id="Warstwa_1" xmlns="http://www.w3.org/2000/svg" xmlns:xlink="http://www.w3.org/1999/xlink" x="0px"
	y="0px" viewBox="0 0 430 430" style="enable-background:new 0 0 430 430;" xml:space="preserve">
	<style type="text/css">
		.st0 {
			fill: #ee8f66;
		}

		.st1 {
			fill: #9cc2f4;
		}

		.st2 {
			fill: #9cc2f4;
		}

		.st3 {
			fill: none;
			stroke: #ee8f66;
			stroke-width: 12;
			stroke-linecap: round;
			stroke-linejoin: round;
			stroke-miterlimit: 10;
		}

		.st4 {
			fill: #08A183;
		}
	</style>
	<g>
		<path class="st0" d="M349.84,381.17c-0.96,0-1.91-0.23-2.79-0.69l-40.49-21.29l-40.49,21.29c-2.02,1.06-4.47,0.89-6.32-0.46
		c-1.85-1.34-2.77-3.62-2.39-5.87l7.73-45.09l-32.76-31.93c-1.63-1.59-2.22-3.98-1.52-6.15c0.71-2.17,2.58-3.76,4.84-4.08
		l45.27-6.58l20.25-41.02c1.01-2.05,3.1-3.34,5.38-3.34s4.37,1.3,5.38,3.34l20.25,41.02l45.27,6.58c2.26,0.33,4.14,1.91,4.84,4.08
		c0.71,2.17,0.12,4.56-1.52,6.15l-32.76,31.93l7.73,45.09c0.39,2.25-0.54,4.53-2.39,5.87C352.32,380.78,351.08,381.17,349.84,381.17
		z M249.41,297.02l26.31,25.65c1.41,1.38,2.06,3.36,1.73,5.31l-6.21,36.22l32.52-17.1c1.75-0.92,3.84-0.92,5.58,0l32.52,17.1
		l-6.21-36.22c-0.33-1.95,0.31-3.93,1.73-5.31l26.31-25.65l-36.36-5.28c-1.96-0.28-3.64-1.51-4.52-3.28l-16.26-32.95l-16.26,32.95
		c-0.87,1.77-2.56,3-4.52,3.28L249.41,297.02z" />
		<path class="st2" d="M296.12,174.29L296.12,174.29c-2.19,0-4.21-1.2-5.26-3.12l-11.4-20.84l-20.84-11.4
		c-1.92-1.05-3.12-3.07-3.12-5.26s1.2-4.21,3.12-5.26l20.84-11.4l11.4-20.84c1.05-1.92,3.07-3.12,5.26-3.12s4.21,1.2,5.26,3.12
		l11.4,20.84l20.84,11.4c1.92,1.05,3.12,3.07,3.12,5.26s-1.2,4.21-3.12,5.26l-20.84,11.4l-11.4,20.84
		C300.33,173.09,298.32,174.29,296.12,174.29z M274,133.66l12.76,6.98c1.01,0.55,1.83,1.38,2.39,2.39l6.98,12.76l6.98-12.76
		c0.55-1.01,1.38-1.83,2.38-2.38l12.76-6.98l-12.76-6.98c-1.01-0.55-1.83-1.38-2.38-2.38l-6.98-12.76l-6.98,12.76
		c-0.55,1.01-1.38,1.83-2.39,2.39L274,133.66z" />
		<path class="st2" d="M136.75,333.47c-2.19,0-4.21-1.2-5.26-3.12l-11.4-20.84l-20.84-11.4c-1.92-1.05-3.12-3.07-3.12-5.26
		s1.2-4.21,3.12-5.26l20.84-11.4l11.4-20.84c1.05-1.92,3.07-3.12,5.26-3.12l0,0c2.19,0,4.21,1.2,5.26,3.12l11.4,20.84l20.84,11.4
		c1.92,1.05,3.12,3.07,3.12,5.26s-1.2,4.21-3.12,5.26l-20.84,11.4l-11.4,20.84C140.96,332.27,138.94,333.47,136.75,333.47z
		 M114.62,292.84l12.76,6.98c1.01,0.55,1.83,1.38,2.38,2.38l6.98,12.76l6.98-12.76c0.55-1.01,1.38-1.83,2.39-2.39l12.76-6.98
		l-12.76-6.98c-1.01-0.55-1.83-1.38-2.39-2.39l-6.98-12.76l-6.98,12.76c-0.55,1.01-1.38,1.83-2.38,2.39L114.62,292.84z" />
		<path class="st0" d="M260.49,264.21c-1.54,0-3.07-0.59-4.24-1.76L133.7,139.9c-2.34-2.34-2.34-6.14,0-8.49
		c2.34-2.34,6.14-2.34,8.48,0l122.55,122.55c2.34,2.34,2.34,6.14,0,8.49C263.56,263.62,262.03,264.21,260.49,264.21z" />
		<path class="st0" d="M116.98,120.7c-1.54,0-3.07-0.59-4.24-1.76L52.87,59.07c-2.34-2.34-2.34-6.14,0-8.49
		c2.34-2.34,6.14-2.34,8.48,0l59.87,59.87c2.34,2.34,2.34,6.14,0,8.49C120.06,120.11,118.52,120.7,116.98,120.7z" />
		<path class="st0" d="M273.16,197.28c-1.54,0-3.07-0.59-4.24-1.76l-20.95-20.95c-2.34-2.34-2.34-6.14,0-8.49
		c2.34-2.34,6.14-2.34,8.48,0l20.95,20.95c2.34,2.34,2.34,6.14,0,8.49C276.24,196.69,274.7,197.28,273.16,197.28z" />
		<path class="st1" d="M230.89,155c-1.54,0-3.07-0.59-4.24-1.76l-87.24-87.24c-2.34-2.34-2.34-6.14,0-8.49
		c2.34-2.34,6.14-2.34,8.48,0l87.24,87.24c2.34,2.34,2.34,6.14,0,8.49C233.96,154.42,232.43,155,230.89,155z" />
		<path class="st0" d="M193.56,276.88c-1.54,0-3.07-0.59-4.24-1.76l-63.38-63.38c-2.34-2.34-2.34-6.14,0-8.49
		c2.34-2.34,6.14-2.34,8.48,0l63.38,63.38c2.34,2.34,2.34,6.14,0,8.49C196.63,276.29,195.1,276.88,193.56,276.88z" />
		<path class="st1" d="M111.6,194.92c-1.54,0-3.07-0.59-4.24-1.76l-58.19-58.19c-2.34-2.34-2.34-6.14,0-8.49
		c2.34-2.34,6.14-2.34,8.48,0l58.19,58.19c2.34,2.34,2.34,6.14,0,8.49C114.67,194.33,113.13,194.92,111.6,194.92z" />
		<path class="st0" d="M209.13,372.05c-1.54,0-3.07-0.59-4.24-1.76l-38.58-38.58c-2.34-2.34-2.34-6.14,0-8.49
		c2.34-2.34,6.14-2.34,8.48,0l38.58,38.58c2.34,2.34,2.34,6.14,0,8.49C212.2,371.47,210.67,372.05,209.13,372.05z" />
		<path class="st0" d="M105.13,268.06c-1.54,0-3.07-0.59-4.24-1.76L52.1,217.51c-2.34-2.34-2.34-6.14,0-8.49
		c2.34-2.34,6.14-2.34,8.48,0l48.79,48.79c2.34,2.34,2.34,6.14,0,8.49C108.21,267.47,106.67,268.06,105.13,268.06z" />
		<path class="st0" d="M366.49,214.69c-1.57,0-3.13-0.61-4.31-1.83l-37.97-39.2c-2.31-2.38-2.25-6.18,0.13-8.48
		c2.38-2.31,6.18-2.24,8.48,0.13l37.97,39.2c2.31,2.38,2.25,6.18-0.13,8.48C369.5,214.13,368,214.69,366.49,214.69z" />
		<path class="st0"
			d="M264.14,109.05c-1.57,0-3.13-0.61-4.31-1.83L237.15,83.8c-2.31-2.38-2.25-6.18,0.13-8.48
		c2.38-2.31,6.18-2.25,8.48,0.13l22.69,23.42c2.31,2.38,2.25,6.18-0.13,8.48C267.15,108.48,265.65,109.05,264.14,109.05z" />
		<path class="st0" d="M225.71,70.23c-1.54,0-3.07-0.59-4.24-1.76l-8.62-8.62c-2.34-2.34-2.34-6.14,0-8.49
		c2.34-2.34,6.14-2.34,8.49,0l8.62,8.62c2.34,2.34,2.34,6.14,0,8.49C228.78,69.64,227.25,70.23,225.71,70.23z" />
	</g>
</svg>