<svg xmlns="http://www.w3.org/2000/svg" width="32" height="32" viewBox="0 0 32 32">
  <g transform="translate(585.786 -1060.626)">
    <circle style="isolation:auto;mix-blend-mode:normal" cx="-569.906" cy="1073.622" r="11" fill="#2b4255" color="#000"
      overflow="visible" />
    <path fill="none" stroke="#34485c" d="M-571.64184 1080.9476l0 10.2695M-572.54529 1081.1694l-4.63872 8.0346" />
    <path fill="#4bbfeb"
      d="M-576.40616 1089.6225a1 1 0 0 0-.5-.866 1 1 0 0 0-1 0 1 1 0 0 0-.5.866M-570.64184 1091.6259a1 1 0 0 0-.5-.866 1 1 0 0 0-1 0 1 1 0 0 0-.5.866M-572.62655 1079.6053l0-3.2657 1.98348-.5312 0 3.7969z" />
    <path fill="#2b4255"
      d="m -569.21469,1070.73 10.1422,-2.7176 c 0,0 2e-5,0 2e-5,0 l 1.5529,5.7955 c 0,0 -10e-6,0 -10e-6,0 l -10.1422,2.7176 c -10e-6,0 -10e-6,0 -10e-6,0 l -1.5529,-5.7955 c 0,0 -10e-6,0 0,0 z" />
    <path fill="#4bbfeb" d="m -567.81909,1075.4862 -8.79487,2.4028 -10e-6,0 -1.03528,-3.8637 1e-5,0 8.81601,-2.4084" />
    <path fill="#4bbfeb"
      d="m -576.82474,1076.8367 -4.87764,1.3806 -4e-5,-10e-5 0,0 -0.25882,-0.966 -0.25882,-0.9659 10e-6,0 0,0 4.91647,-1.391" />
    <rect width=".945" height="3.072" x="-841.382" y="888.411" fill="#34485c" rx=".472" ry=".472"
      transform="rotate(-15)" />
    <path fill="none" stroke="#34485c" d="m -570.73839,1081.1694 4.63872,8.0346" />
    <path fill="#4bbfeb" d="m -566.90616,1089.6225 a 1,1 0 0 1 0.5,-0.866 1,1 0 0 1 1,0 1,1 0 0 1 0.5,0.866" />
    <path fill="#e9eded"
      d="m -9.5602077,1056.856 -1.6576413,-1.6808 -2.275945,0.6268 1.68077,-1.6577 -0.626768,-2.2759 1.657641,1.6808 2.2759447,-0.6268 -1.6807697,1.6576 z"
      color="#000" overflow="visible" transform="rotate(30 -1607.392 -352.81) scale(.34727)"
      style="isolation:auto;mix-blend-mode:normal" />
    <path fill="#e9eded" style="isolation:auto;mix-blend-mode:normal"
      d="m -9.5602077,1056.856 -1.6576413,-1.6808 -2.275945,0.6268 1.68077,-1.6577 -0.626768,-2.2759 1.657641,1.6808 2.2759447,-0.6268 -1.6807697,1.6576 z"
      color="#000" overflow="visible" transform="rotate(30 -1596.562 -349.712) scale(.34727)" />
    <path fill="#e9eded"
      d="m -9.5602077,1056.856 -1.6576413,-1.6808 -2.275945,0.6268 1.68077,-1.6577 -0.626768,-2.2759 1.657641,1.6808 2.2759447,-0.6268 -1.6807697,1.6576 z"
      color="#000" overflow="visible" transform="rotate(30 -1600.16 -340.748) scale(.34727)"
      style="isolation:auto;mix-blend-mode:normal" />
    <path fill="#e9eded" style="isolation:auto;mix-blend-mode:normal"
      d="m -9.5602077,1056.856 -1.6576413,-1.6808 -2.275945,0.6268 1.68077,-1.6577 -0.626768,-2.2759 1.657641,1.6808 2.2759447,-0.6268 -1.6807697,1.6576 z"
      color="#000" overflow="visible" transform="rotate(30 -1616.32 -326.418) scale(.34727)" />
    <path fill="#e9eded"
      d="m -9.5602077,1056.856 -1.6576413,-1.6808 -2.275945,0.6268 1.68077,-1.6577 -0.626768,-2.2759 1.657641,1.6808 2.2759447,-0.6268 -1.6807697,1.6576 z"
      color="#000" overflow="visible" transform="rotate(30 -1589.83 -339.516) scale(.34727)"
      style="isolation:auto;mix-blend-mode:normal" />
    <path d="m -570.64307,1076.2504 -1.98438,0.541 0,1 1.98438,-0.541 0,-1 z" opacity=".15" />
    <rect width="2.502" height="4.529" x="1079.121" y="569.378" fill="#4bbfeb" rx=".529" ry=".529"
      transform="rotate(90)" />
    <path d="m -577.34232,1074.8943 -0.95703,0.2715 0.51562,1.9316 0.95899,-0.2715 -0.51758,-1.9316 z" opacity=".15" />
    <path style="isolation:auto;mix-blend-mode:normal"
      d="m -569.82029,1071.8759 0.96592,-0.259 1.03528,3.8638 -0.96593,0.2589 z" color="#000" opacity=".15"
      overflow="visible" />
    <path fill="#4bbfeb" d="m -559.5546,1068.142 -9.66015,2.5879 1.55273,5.7949 9.6582,-2.5878 -1.55078,-5.795 z" />
    <rect width="1" height="8" x="-816.945" y="885.922" fill="#34485c" rx=".5" ry=".571" transform="rotate(-15)" />
    <path style="isolation:auto;mix-blend-mode:normal"
      d="m -560.5085,1068.401 0.96593,-0.259 1.53875,5.7942 -0.96592,0.259 z" color="#000" opacity=".15"
      overflow="visible" />
  </g>
</svg>