<svg xmlns="http://www.w3.org/2000/svg" enable-background="new 0 0 512 512" viewBox="0 0 512 512">
	<path fill="#96bf16"
		d="M499.545,286.867c6.425,9.638,10.134,21.209,10.134,33.59c0,33.616-27.269,60.885-60.885,60.885
			c-12.877,0-24.866-4.023-34.713-10.866c-8.384,8.515-20.034,13.817-32.963,13.817c-12.851,0-24.396-5.224-32.754-13.66
			c-10.108,7.549-22.646,11.989-36.228,11.989c-33.59,0-60.885-27.269-60.885-60.859c0-14.705,5.224-28.235,13.922-38.762
			c-8.123-10.239-13.007-23.194-13.007-37.272c0-32.023,25.101-58.221,56.705-59.892c1.071-0.078,2.168-0.105,3.265-0.105
			c1.541,0,3.082,0.052,4.597,0.183c0-1.071,0.052-2.168,0.131-3.213c2.063-33.668,30.063-60.336,64.254-60.336
			c35.288,0,63.967,28.392,64.385,63.549c1.515-0.131,3.056-0.183,4.597-0.183c33.12,0,59.97,26.877,59.97,59.997
			c0,9.168-2.037,17.866-5.746,25.623c-1.985,4.258-4.492,8.228-7.444,11.858C497.796,284.385,498.684,285.613,499.545,286.867z" />
	<path fill="#a36941" d="M325.276,497.847c31.728-32.69,35.337-83.592,33.051-119.571c6.699,3.85,14.48,6.017,22.783,6.017
			c7.942,0,15.402-2.005,21.901-5.496c-2.287,35.818,1.443,86.521,33.051,119.05H325.276z" />
	<path fill="#b37f59" d="M102.307,497.991c41.16-42.408,45.843-108.443,42.876-155.118
			c8.691,4.995,18.785,7.805,29.556,7.805c10.303,0,19.981-2.602,28.411-7.129c-2.966,46.466,1.873,112.242,42.876,154.442H102.307z
			" />
	<path fill="#a1d51c" d="M496.881,283.21c0.914,1.175,1.802,2.403,2.664,3.657c-14.548,13.242-35.052,19.511-55.713,15.123
				c-1.776-0.392-2.899-2.116-2.534-3.892c0.392-1.75,2.116-2.873,3.892-2.507c23.455,5.015,46.65-5.355,59.135-24.239
				C502.34,275.609,499.833,279.579,496.881,283.21z" />
	<path fill="#878787" d="M508.647,501.112H3.353c-1.803,0-3.265-1.462-3.265-3.265s1.462-3.265,3.265-3.265h505.294
				c1.803,0,3.265,1.462,3.265,3.265S510.451,501.112,508.647,501.112z" />
	<path fill="#a1d51c"
		d="M375.373,245.729c0,1.802-1.463,3.265-3.265,3.265c-1.802,0-3.265-1.463-3.265-3.265
				c0-31.265-25.44-56.706-56.706-56.706c-1.776,0-3.213-1.41-3.265-3.187c1.071-0.078,2.168-0.105,3.265-0.105
				c1.541,0,3.082,0.052,4.597,0.183c0-1.071,0.052-2.168,0.131-3.213C349.541,185.079,375.373,212.452,375.373,245.729z" />
	<path fill="#a1d51c" d="M327.757,223.422c8.724,12.642,13.791,28.026,13.791,44.455c0,43.594-35.392,78.985-78.985,78.985
				c-16.716,0-32.284-5.224-45.056-14.105c-10.866,11.049-25.989,17.944-42.758,17.944c-16.664,0-31.657-6.791-42.497-17.735
				c-13.086,9.769-29.384,15.567-46.989,15.567c-43.594,0-78.959-35.392-78.959-78.985c0-19.041,6.765-36.593,18.049-50.28
				C13.801,206,7.454,189.18,7.454,170.896c0-42.47,34.138-77.105,76.504-77.784c0.418-0.026,0.862-0.026,1.306-0.026
				c2.011,0,3.996,0.052,5.955,0.235c0.026-1.541,0.078-3.056,0.183-4.571c2.873-43.463,39.127-77.862,83.347-77.862
				c45.761,0,82.982,36.828,83.53,82.433c1.959-0.183,3.944-0.235,5.955-0.235c42.993,0,77.81,34.896,77.81,77.81
				c0,13.843-3.604,26.799-9.925,38.03c0,0.026-0.026,0.078-0.052,0.104c-2.09,3.709-4.466,7.235-7.131,10.526
				C325.929,220.81,326.869,222.09,327.757,223.422z" />
	<path fill="#96bf16"
		d="M324.936 219.557c.993 1.254 1.933 2.534 2.821 3.866-18.467 17.108-44.612 25.388-71.097 20.034-1.776-.34-2.899-2.064-2.56-3.839.366-1.776 2.09-2.9 3.866-2.56 28.914 5.825 57.359-6.008 74.101-28.027C329.978 212.74 327.601 216.266 324.936 219.557zM143.771 164.549c0 1.802-1.463 3.265-3.265 3.265-1.802 0-3.265-1.463-3.265-3.265 0-33.721-22.489-62.295-53.284-71.437.418-.026.862-.026 1.306-.026 2.011 0 3.996.052 5.955.235.026-1.541.078-3.056.183-4.571C121.988 100.347 143.771 129.941 143.771 164.549zM86.912 191.754c-1.803 0-3.265-1.462-3.265-3.265 0-10.288 8.37-18.659 18.66-18.659 1.803 0 3.265 1.462 3.265 3.265s-1.462 3.265-3.265 3.265c-6.688 0-12.13 5.441-12.13 12.129C90.177 190.292 88.716 191.754 86.912 191.754zM203.851 125.636c-1.803 0-3.265-1.462-3.265-3.265 0-10.29 8.37-18.66 18.659-18.66 1.803 0 3.265 1.462 3.265 3.265s-1.462 3.265-3.265 3.265c-6.688 0-12.129 5.442-12.129 12.13C207.116 124.175 205.654 125.636 203.851 125.636zM229.011 191.754c-1.803 0-3.265-1.462-3.265-3.265 0-10.288 8.37-18.659 18.659-18.659 1.803 0 3.265 1.462 3.265 3.265s-1.462 3.265-3.265 3.265c-6.688 0-12.129 5.441-12.129 12.129C232.276 190.292 230.815 191.754 229.011 191.754z" />
	<path fill="#a1d51c"
		d="M442.396 259.683c-1.803 0-3.265-1.462-3.265-3.265 0-10.29 8.37-18.66 18.659-18.66 1.803 0 3.265 1.462 3.265 3.265s-1.462 3.265-3.265 3.265c-6.688 0-12.129 5.442-12.129 12.13C445.661 258.221 444.199 259.683 442.396 259.683zM400.912 196.714c-1.803 0-3.265-1.462-3.265-3.265 0-10.29 8.37-18.66 18.66-18.66 1.803 0 3.265 1.462 3.265 3.265 0 1.803-1.462 3.265-3.265 3.265-6.688 0-12.13 5.442-12.13 12.13C404.177 195.252 402.715 196.714 400.912 196.714zM380.669 324.357c-1.803 0-3.265-1.462-3.265-3.265 0-10.29 8.37-18.659 18.659-18.659 1.803 0 3.265 1.462 3.265 3.265 0 1.803-1.462 3.265-3.265 3.265-6.688 0-12.129 5.441-12.129 12.129C383.934 322.895 382.472 324.357 380.669 324.357z" />
	<path fill="#96bf16"
		d="M102.307 267.378c-1.803 0-3.265-1.462-3.265-3.265 0-10.29 8.37-18.659 18.659-18.659 1.803 0 3.265 1.462 3.265 3.265 0 1.803-1.462 3.265-3.265 3.265-6.688 0-12.129 5.441-12.129 12.129C105.572 265.917 104.111 267.378 102.307 267.378zM196.154 286.674c-1.803 0-3.265-1.462-3.265-3.265 0-10.29 8.37-18.661 18.659-18.661 1.803 0 3.265 1.462 3.265 3.265 0 1.803-1.462 3.265-3.265 3.265-6.688 0-12.129 5.443-12.129 12.131C199.419 285.213 197.957 286.674 196.154 286.674z" />
</svg>